IKResults
version=1
nRows=5
nColumns=40
inDegrees=yes

Units are S.I. units (second, meters, Newtons, ...)
Angles are in degrees.

endheader
time	pelvis_tilt	pelvis_list	pelvis_rotation	pelvis_tx	pelvis_ty	pelvis_tz	hip_flexion_r	hip_adduction_r	hip_rotation_r	knee_angle_r	knee_angle_r_beta	ankle_angle_r	subtalar_angle_r	mtp_angle_r	hip_flexion_l	hip_adduction_l	hip_rotation_l	knee_angle_l	knee_angle_l_beta	ankle_angle_l	subtalar_angle_l	mtp_angle_l	lumbar_extension	lumbar_bending	lumbar_rotation	arm_flex_r	arm_add_r	arm_rot_r	elbow_flex_r	pro_sup_r	wrist_flex_r	wrist_dev_r	arm_flex_l	arm_add_l	arm_rot_l	elbow_flex_l	pro_sup_l	wrist_flex_l	wrist_dev_l
      0.99000000	     18.88861001	     -6.60166186	      4.23412380	      0.02080184	      0.94850065	     -1.44854552	     -8.16054658	      9.13733505	    -16.26677097	    -19.38529483	     -0.33833722	      5.14879329	     -2.93319634	     -5.51904919	    -17.42770727	      7.93412250	     -1.38573618	    -56.40083184	     -0.98438022	     -3.51155879	     17.43154583	     -2.42783236	    -23.98629832	      8.26488584	     -3.62483149	     -6.16046657	     -8.02093640	     -1.86043224	     20.26569204	     89.95437384	      0.00000000	      0.00000000	      7.00161976	      7.79829604	     10.37753722	     32.42428943	     89.95437384	      0.00000000	      0.00000000
      1.00000000	     18.73858799	     -6.41469644	      4.04995482	      0.03055953	      0.94925307	     -1.44766763	     -8.84473422	      9.13775852	    -15.40176611	    -19.08317961	     -0.33306432	      5.54985652	     -3.24755749	     -5.36845170	    -15.94628064	      7.56374343	     -1.71453724	    -57.37482698	     -1.00137964	     -1.64914776	     17.91871588	     -1.85288682	    -23.94286979	      7.99400526	     -3.09483419	     -5.74576231	     -8.07903302	     -1.53551408	     21.34289331	     89.95437384	      0.00000000	      0.00000000	      6.90583143	      7.46633354	     10.14741348	     30.33873309	     89.95437384	      0.00000000	      0.00000000
      1.01000000	     18.73220704	     -6.13770385	      3.81760643	      0.04022373	      0.95021929	     -1.44639934	     -9.64560373	      8.98971374	    -14.94904677	    -18.90151527	     -0.32989368	      6.00186421	     -3.43815195	     -5.27317176	    -14.63401343	      7.24108619	     -1.72573561	    -58.02343532	     -1.01269999	     -0.27900813	     18.13822335	     -1.52073287	    -24.08574893	      7.54444098	     -2.70745987	     -5.01750863	     -7.98806512	     -1.37937938	     22.05252222	     89.95437384	      0.00000000	      0.00000000	      6.49742833	      7.33776043	      9.91281653	     28.79453319	     89.95437384	      0.00000000	      0.00000000
      1.02000000	     18.62934417	     -5.84389857	      3.50271673	      0.04974970	      0.95101093	     -1.44502851	    -10.31661852	      8.79266109	    -14.43995285	    -18.74771700	     -0.32720939	      6.38718905	     -3.66179525	     -5.13455126	    -13.25605225	      6.88339347	     -1.67335867	    -58.45750698	     -1.02027597	      1.11199949	     18.22133890	     -1.11578008	    -24.12892159	      7.03652565	     -2.21955774	     -4.35046836	     -7.91275717	     -1.33404290	     22.90860222	     89.95437384	      0.00000000	      0.00000000	      6.12884943	      7.20146030	      9.70697490	     27.20762836	     89.95437384	      0.00000000	      0.00000000
      1.03000000	     18.43934324	     -5.56895838	      3.06846428	      0.05917220	      0.95169107	     -1.44359349	    -10.98468741	      8.69396371	    -13.37896924	    -18.40823446	     -0.32128430	      6.82602208	     -4.63839946	     -1.90303547	    -11.78988096	      6.42793135	     -1.51381754	    -58.78029581	     -1.02590970	      3.14254427	     17.90233988	      8.45222933	    -24.10805021	      6.50904003	     -1.62154331	     -3.82471599	     -7.85840928	     -1.50813044	     24.10100630	     89.95437384	      0.00000000	      0.00000000	      5.75700486	      7.01823446	      9.63013348	     25.58882352	     89.95437384	      0.00000000	      0.00000000
